<svg xmlns="http://www.w3.org/2000/svg" x="0px" y="0px"
     width="512" height="512"
     viewBox="0 0 172 172"
     style=" fill:#000000;">
    <g fill="none" fill-rule="nonzero" stroke="none" stroke-width="1" stroke-linecap="butt" stroke-linejoin="miter"
       stroke-miterlimit="10" stroke-dasharray="" stroke-dashoffset="0" font-family="none" font-weight="none"
       font-size="none" text-anchor="none" style="mix-blend-mode: normal">
        <path d="M0,172v-172h172v172z" fill="none"></path>
        <g fill="#ffffff">
            <path d="M120.9375,34.9375c0,0 -5.375,21.5 -18.8125,21.5c-29.5625,0 -18.8125,-48.375 -18.8125,-48.375c0,0 -26.875,16.125 -34.9375,59.125c-10.75,-5.375 -13.4375,-21.5 -13.4375,-21.5c0,0 -16.125,18.8125 -16.125,48.375c0,56.4375 53.75,61.8125 53.75,61.8125c0,0 -13.4375,-16.125 -13.4375,-34.9375c0,-29.5625 12.6205,-43 12.6205,-43c0,0 2.6875,29.5625 19.6295,29.5625c10.75,0 16.125,-8.0625 16.125,-8.0625c0,0 10.75,10.75 10.75,29.5625c0,17.06025 -13.4375,26.875 -13.4375,26.875c28.15963,-5.65987 48.375,-31.68562 48.375,-61.44162c0,-35.30838 -32.25,-59.49588 -32.25,-59.49588z"></path>
        </g>
    </g>
</svg>